<svg version="1.1" id="Layer_1" xmlns="http://www.w3.org/2000/svg" xmlns:xlink="http://www.w3.org/1999/xlink" x="0px" y="0px"
	 width="100%" viewBox="0 0 500 500" enable-background="new 0 0 500 500" xml:space="preserve">
<path fill="#FEFFFF" opacity="1.000000" stroke="none" 
	d="
M347.000000,501.000000 
	C231.333359,501.000000 116.166725,501.000000 1.000062,501.000000 
	C1.000041,334.333405 1.000041,167.666794 1.000021,1.000151 
	C167.666550,1.000101 334.333099,1.000101 500.999756,1.000050 
	C500.999817,167.666519 500.999817,334.333038 500.999908,500.999786 
	C449.833344,501.000000 398.666656,501.000000 347.000000,501.000000 
M142.595688,257.692230 
	C141.064972,262.792419 139.534241,267.892578 137.570786,273.378784 
	C137.445557,273.931519 137.320328,274.484253 136.816376,275.666687 
	C134.421661,283.324799 132.026962,290.982910 129.651108,298.693359 
	C129.651108,298.693359 129.650909,298.748962 129.072403,299.062744 
	C128.144516,301.616760 127.216621,304.170746 126.146935,307.115051 
	C177.028214,317.904419 227.100220,328.522217 277.632599,339.237610 
	C278.246826,333.158661 278.508240,328.011292 279.424316,322.983154 
	C279.719116,321.365051 281.739105,320.061310 283.711334,318.583527 
	C284.189362,318.459076 284.667389,318.334595 285.395416,318.448853 
	C285.660278,318.470032 285.848175,318.359650 286.711517,318.112701 
	C287.458954,318.036530 288.206360,317.960388 289.680634,318.015930 
	C290.796753,317.677673 291.912903,317.339417 293.508392,316.995941 
	C293.508392,316.995941 293.987396,316.976562 294.741180,316.998718 
	C295.494720,316.983734 296.248230,316.968750 297.703278,316.983002 
	C298.801788,316.653168 299.900299,316.323334 301.665253,316.017670 
	C302.109772,316.013397 302.554260,316.009125 303.885498,316.017792 
	C327.489563,313.386017 351.093628,310.754242 374.768433,308.114563 
	C374.768433,305.740631 375.044952,304.211121 374.726868,302.817322 
	C370.019714,282.189301 365.236938,261.578522 360.465576,240.965164 
	C354.384064,214.691681 348.089294,188.464310 342.400269,162.106171 
	C341.357422,157.274551 339.266815,156.623215 335.376678,157.015503 
	C328.632141,157.695602 321.882599,158.325775 314.863647,158.134735 
	C313.744080,148.896713 312.858337,139.622849 311.449493,130.429153 
	C309.403839,117.080223 301.734009,107.876411 289.058899,103.566002 
	C276.623901,99.337257 265.207520,101.929184 255.171173,110.636032 
	C253.894608,111.743492 251.393448,112.435402 249.793762,112.023155 
	C229.723434,106.851051 211.477142,117.687645 206.821960,137.836929 
	C204.806396,146.560913 202.947388,155.321075 200.185089,164.252365 
	C194.785156,163.300247 189.385239,162.348145 183.332367,161.167892 
	C182.874100,161.142426 182.415817,161.116959 181.409256,160.637192 
	C176.337097,158.347305 173.993393,160.300339 172.945923,165.496368 
	C172.132523,169.531235 170.459000,173.390320 169.203705,177.338959 
	C165.842926,187.910583 162.501480,198.488342 159.045868,209.080307 
	C159.045868,209.080307 159.084381,209.180954 158.567688,209.623398 
	C157.443436,212.889938 156.259995,216.137497 155.205444,219.426392 
	C151.183609,231.969803 147.203308,244.526535 143.076004,257.116272 
	C143.076004,257.116272 143.108307,257.249268 142.595688,257.692230 
M366.326569,367.501099 
	C366.326569,365.078766 366.326569,362.656464 366.326569,359.960510 
	C372.723236,359.960510 378.360504,359.956085 383.997772,359.961578 
	C391.755371,359.969147 392.448486,359.012085 390.202515,351.172974 
	C378.845184,351.172974 367.451355,351.172974 355.912231,351.172974 
	C355.912231,367.602386 355.912231,383.673492 355.912231,399.974121 
	C367.843903,399.974121 379.432312,399.974121 390.953186,399.974121 
	C392.875549,391.850464 392.382507,391.155090 384.901398,391.143005 
	C378.802856,391.133148 372.704315,391.140991 366.644775,391.140991 
	C366.644775,387.027954 366.644775,383.608673 366.644775,379.792206 
	C372.765808,379.792206 378.559326,379.756409 384.352112,379.806854 
	C387.367249,379.833069 389.833832,379.955963 389.747559,375.488220 
	C389.668793,371.408630 387.915253,370.826233 384.532135,370.963165 
	C379.542175,371.165161 374.529938,371.158234 369.545563,370.893768 
	C368.434021,370.834747 367.398804,369.336700 366.326569,367.501099 
M183.404663,359.966736 
	C192.527420,360.024109 192.927734,359.570251 190.818878,350.885132 
	C180.167755,350.885132 169.377777,350.794403 158.596100,351.051270 
	C157.698685,351.072662 156.173203,353.407440 156.108337,354.724915 
	C155.830185,360.375916 155.989563,366.048462 155.989548,371.713135 
	C155.989517,381.012390 155.989532,390.311676 155.989532,399.911133 
	C168.238922,399.911133 179.963287,399.911133 191.631454,399.911133 
	C193.006653,391.242676 192.914795,391.131805 184.696854,391.131561 
	C178.920105,391.131378 173.143341,391.131531 167.285202,391.131531 
	C167.285202,387.066193 167.285202,383.504089 167.285202,379.764282 
	C173.430374,379.764282 179.254410,379.602325 185.063690,379.824890 
	C188.560501,379.958801 190.172806,379.163818 190.151520,375.193512 
	C190.130707,371.311859 188.329285,370.876465 185.216415,370.954956 
	C179.274490,371.104797 173.326096,370.998474 167.257629,370.998474 
	C167.257629,367.107330 167.257629,363.708130 167.257629,359.966187 
	C172.501038,359.966187 177.465775,359.966187 183.404663,359.966736 
M204.714615,386.117004 
	C201.769363,390.424133 198.824127,394.731293 195.710297,399.284973 
	C205.468811,401.681976 207.382629,400.983704 212.313889,393.858643 
	C214.447952,390.775177 216.621719,387.719238 219.050491,384.262177 
	C221.995880,388.512421 224.535461,392.171509 227.069138,395.834625 
	C230.449219,400.721466 236.304520,401.942505 242.289337,398.710022 
	C239.121582,394.036255 235.973480,389.394592 232.828568,384.750793 
	C226.207382,374.973816 226.223328,374.983490 232.798843,365.094788 
	C235.689163,360.748138 238.503189,356.350769 241.507858,351.736908 
	C231.575821,349.526733 230.415543,349.976959 225.507126,357.254242 
	C223.593643,360.091248 221.618210,362.886475 219.373611,366.130524 
	C217.187286,362.950317 214.875732,360.433289 213.538254,357.475769 
	C210.214294,350.125519 204.460754,349.908997 196.826477,351.585175 
	C199.762131,356.142273 202.435883,360.409271 205.225006,364.599457 
	C212.186539,375.058075 212.207581,375.044067 204.714615,386.117004 
M134.780151,393.290222 
	C134.780151,382.547241 134.780151,371.804260 134.780151,360.621094 
	C139.787323,360.621094 144.204407,360.621094 148.895264,360.621094 
	C148.895264,357.254608 148.895264,354.332794 148.895264,351.232910 
	C135.534332,351.232910 122.336868,351.232910 109.099632,351.232910 
	C109.099632,354.516296 109.099632,357.406219 109.099632,360.920288 
	C114.058792,360.920288 118.607430,360.920288 123.566147,360.920288 
	C123.566147,374.278107 123.566147,387.007324 123.566147,399.924622 
	C127.412621,399.924622 130.805771,399.924622 134.776474,399.924622 
	C134.776474,397.797150 134.776474,396.009827 134.780151,393.290222 
M259.170990,395.161530 
	C259.297699,396.740997 259.424438,398.320496 259.548737,399.869873 
	C263.500031,399.869873 266.897156,399.869873 270.899719,399.869873 
	C270.899719,386.628754 270.899719,373.756561 270.899719,360.440887 
	C275.920044,360.440887 280.332764,360.440887 284.835205,360.440887 
	C284.835205,357.070892 284.835205,354.170380 284.835205,351.140381 
	C271.429871,351.140381 258.358765,351.140381 245.041794,351.140381 
	C244.878189,352.508087 244.774521,353.631470 244.605316,354.744873 
	C243.884903,359.485291 245.768509,361.412842 250.623825,360.794952 
	C253.337708,360.449585 256.131561,360.732849 259.201080,360.732849 
	C259.201080,372.329926 259.201080,383.279999 259.170990,395.161530 
M319.625000,400.193420 
	C329.362213,400.193420 339.099457,400.193420 348.733063,400.193420 
	C349.418732,390.861969 349.418732,390.862305 340.962524,390.863495 
	C335.867401,390.864197 330.772278,390.863617 325.180908,390.863617 
	C325.180908,377.232910 325.180908,364.309418 325.180908,351.240570 
	C321.261353,351.240570 317.868622,351.240570 314.382996,351.240570 
	C314.210083,352.226044 314.001678,352.863281 314.000641,353.500854 
	C313.977417,367.832001 314.101288,382.165009 313.891174,396.493164 
	C313.833374,400.434204 316.051758,400.303436 319.625000,400.193420 
M291.918091,368.503296 
	C291.918091,378.938263 291.918091,389.373230 291.918091,399.969788 
	C296.078247,399.969788 299.498535,399.969788 303.129089,399.969788 
	C303.129089,383.502899 303.129089,367.338593 303.129089,351.227783 
	C299.208588,351.227783 295.815125,351.227783 291.918213,351.227783 
	C291.918213,356.912720 291.918213,362.209473 291.918091,368.503296 
z"/>
<path fill="#53A8DA" opacity="1.000000" stroke="none" 
	d="
M137.195099,275.036987 
	C137.320328,274.484253 137.445557,273.931519 138.102081,273.030396 
	C142.255890,268.155640 143.520142,262.945465 143.108307,257.249268 
	C143.108307,257.249268 143.076004,257.116272 143.481339,257.000610 
	C146.124390,250.827667 148.308456,244.749908 150.612106,238.717850 
	C154.281021,229.110962 158.834717,219.765823 159.084381,209.180954 
	C159.084381,209.180954 159.045868,209.080307 159.462189,209.001892 
	C161.913101,203.944489 164.020035,198.993240 165.946106,193.972610 
	C166.700500,192.006195 166.962509,189.856674 167.602295,187.839218 
	C168.684464,184.426849 169.255417,180.630051 171.177200,177.753876 
	C174.854202,172.250778 171.563080,162.165298 181.957550,161.091476 
	C182.415817,161.116959 182.874100,161.142426 183.730209,161.617996 
	C186.759171,163.044891 189.319489,164.435898 192.038132,164.900620 
	C196.036072,165.583954 199.617767,166.194992 199.223724,171.842957 
	C198.976044,173.684174 198.441818,175.168457 198.547913,176.605438 
	C198.648682,177.970306 199.419342,179.285736 199.895447,180.622894 
	C200.770157,179.629120 202.101395,178.768036 202.435898,177.617233 
	C203.538589,173.823547 204.280609,169.925049 205.549255,166.070679 
	C209.323929,166.698807 212.710464,167.323059 216.382080,168.184586 
	C227.348602,170.576355 238.030060,172.730865 248.983734,175.006973 
	C250.423828,175.352631 251.591721,175.576691 253.165344,175.920013 
	C256.592072,176.942566 259.613068,177.845840 262.643860,179.127060 
	C261.939545,183.050888 261.059113,186.575897 260.609558,190.155014 
	C260.469238,191.272186 261.492645,192.535522 261.983337,193.731949 
	C262.888885,192.777237 264.261169,191.968414 264.613647,190.840805 
	C265.732910,187.260086 266.471954,183.560486 267.769958,179.848816 
	C275.886993,181.167267 283.592072,182.543762 291.281189,184.120148 
	C291.265259,184.320023 291.221771,184.718689 291.258179,184.997543 
	C291.602509,185.456757 291.910431,185.637100 292.422913,186.158432 
	C292.761353,188.672379 292.895172,190.845337 292.951569,192.992889 
	C292.874146,192.967468 292.714417,192.998611 292.483704,193.266266 
	C292.148285,196.705429 292.043610,199.876907 291.636505,203.322922 
	C290.518707,210.743668 289.703369,217.889908 288.577087,225.212128 
	C287.526794,226.838638 286.339630,228.226501 286.126343,229.750656 
	C285.257141,235.961990 284.553436,242.204254 284.043274,248.455872 
	C283.552612,254.468613 283.363281,260.506348 283.064423,266.534271 
	C282.693359,274.019714 282.345825,281.506348 281.703491,289.256073 
	C279.951813,299.026459 278.484772,308.533234 276.867859,318.378357 
	C276.759491,322.808685 277.169769,326.939270 276.746613,330.982635 
	C276.247742,335.749725 272.844360,337.092499 268.293701,335.646240 
	C261.810822,333.585907 255.210052,331.798889 248.552887,330.404999 
	C235.036514,327.574982 221.413193,325.254852 207.899994,322.410797 
	C194.066956,319.499390 180.332748,316.121368 166.517532,313.121368 
	C156.844971,311.020966 147.150955,308.952393 137.384644,307.377319 
	C132.072128,306.520508 128.883347,304.637238 129.650909,298.748962 
	C129.650909,298.748962 129.651108,298.693359 130.035461,298.739197 
	C130.957535,298.265350 131.778870,297.840363 131.988861,297.211304 
	C133.985352,291.229950 135.974762,285.241821 137.720230,279.184784 
	C138.074677,277.954773 137.396957,276.427307 137.195099,275.036987 
z"/>
<path fill="#DEDFE0" opacity="1.000000" stroke="none" 
	d="
M291.221771,184.718689 
	C291.221771,184.718689 291.265259,184.320023 291.589844,184.073898 
	C291.556274,182.930908 291.308624,181.318985 290.823395,181.243988 
	C283.046173,180.041870 275.238647,179.035782 267.348206,177.760468 
	C267.258362,177.535858 267.169067,177.060364 267.412842,176.781555 
	C268.618896,172.116364 269.581238,167.729980 270.798340,163.684006 
	C272.121948,164.146164 273.207581,164.455338 274.256958,164.361069 
	C286.443451,163.266281 298.624512,162.110626 310.948853,161.395538 
	C311.477631,165.295563 311.684845,168.806351 312.354858,172.226501 
	C312.571716,173.333542 314.002441,174.202774 314.877899,175.180786 
	C315.334473,174.082260 316.219360,172.964981 316.172272,171.888489 
	C315.983734,167.577744 315.505951,163.279648 315.135132,158.976883 
	C321.882599,158.325775 328.632141,157.695602 335.376678,157.015503 
	C339.266815,156.623215 341.357422,157.274551 342.400269,162.106171 
	C348.089294,188.464310 354.384064,214.691681 360.465576,240.965164 
	C365.236938,261.578522 370.019714,282.189301 374.726868,302.817322 
	C375.044952,304.211121 374.768433,305.740631 374.768433,308.114563 
	C351.093628,310.754242 327.489563,313.386017 303.450378,315.606018 
	C303.009766,311.291534 302.999756,307.388794 302.999512,303.486084 
	C302.998047,279.532471 303.054016,255.578491 302.901306,231.625854 
	C302.888062,229.551346 301.501984,227.485580 300.753601,225.415741 
	C300.169464,227.483521 299.053009,229.558701 299.081573,231.617981 
	C299.471619,259.748138 297.515564,287.935394 300.998779,315.993530 
	C299.900299,316.323334 298.801788,316.653168 297.348267,316.620728 
	C296.004303,314.839905 295.015411,313.421326 294.023926,311.651917 
	C294.345551,310.197906 294.669739,309.094757 295.358154,307.951843 
	C299.967194,306.127258 296.803070,302.878174 296.830566,300.564209 
	C297.107361,277.272156 297.004395,253.975540 296.987366,230.680222 
	C296.986145,228.996307 296.821960,227.312531 296.733582,225.628693 
	C296.155304,225.652420 295.577057,225.676147 294.998779,225.699860 
	C294.998779,252.134460 294.998779,278.569061 294.702332,304.708893 
	C294.271820,302.606476 294.022247,300.798889 294.020813,298.991150 
	C293.994415,265.562744 294.013397,232.134293 293.953461,198.705994 
	C293.950043,196.809540 293.350891,194.914185 293.028992,193.018311 
	C292.895172,190.845337 292.761353,188.672379 292.322693,185.923157 
	C291.752472,185.137497 291.487122,184.928101 291.221771,184.718689 
z"/>
<path fill="#161617" opacity="1.000000" stroke="none" 
	d="
M314.999390,158.555817 
	C315.505951,163.279648 315.983734,167.577744 316.172272,171.888489 
	C316.219360,172.964981 315.334473,174.082260 314.877899,175.180786 
	C314.002441,174.202774 312.571716,173.333542 312.354858,172.226501 
	C311.684845,168.806351 311.477631,165.295563 311.001709,160.989014 
	C309.838623,150.573914 309.449524,140.842789 307.436737,131.459976 
	C306.203522,125.711258 303.529419,119.572090 299.684875,115.210266 
	C286.547211,100.305092 264.297058,104.750618 257.065155,115.267632 
	C267.483307,122.084541 273.616943,131.680496 273.548462,144.207230 
	C273.513580,150.591293 271.605133,156.965134 270.543549,163.343597 
	C269.581238,167.729980 268.618896,172.116364 267.104248,176.795868 
	C265.417328,177.502686 264.282806,177.916367 263.180206,177.919754 
	C263.972870,173.737701 264.733582,169.965927 265.657593,165.858948 
	C267.060333,159.510544 268.517059,153.532349 269.491974,147.476578 
	C271.290741,136.303604 264.120178,123.223961 253.105560,118.381279 
	C251.702713,122.414429 249.041351,126.433990 249.173996,130.359131 
	C249.587173,142.585587 251.058563,154.776291 252.066254,167.404587 
	C252.261810,170.485794 252.510696,173.143280 252.759598,175.800751 
	C251.591721,175.576691 250.423828,175.352631 248.966873,174.596008 
	C248.335861,171.674332 247.993942,169.285217 247.685272,166.444977 
	C246.873016,149.404037 239.743454,132.592117 249.969360,116.524582 
	C231.422958,110.983231 214.932541,120.474251 210.708176,138.749054 
	C208.691071,147.475204 206.802231,156.230988 204.490173,164.982712 
	C203.151260,165.001190 202.177475,165.010330 201.177872,164.776749 
	C201.152054,164.534027 201.017258,164.064804 201.017258,164.064804 
	C202.947388,155.321075 204.806396,146.560913 206.821960,137.836929 
	C211.477142,117.687645 229.723434,106.851051 249.793762,112.023155 
	C251.393448,112.435402 253.894608,111.743492 255.171173,110.636032 
	C265.207520,101.929184 276.623901,99.337257 289.058899,103.566002 
	C301.734009,107.876411 309.403839,117.080223 311.449493,130.429153 
	C312.858337,139.622849 313.744080,148.896713 314.999390,158.555817 
z"/>
<path fill="#080808" opacity="1.000000" stroke="none" 
	d="
M366.327515,368.001160 
	C367.398804,369.336700 368.434021,370.834747 369.545563,370.893768 
	C374.529938,371.158234 379.542175,371.165161 384.532135,370.963165 
	C387.915253,370.826233 389.668793,371.408630 389.747559,375.488220 
	C389.833832,379.955963 387.367249,379.833069 384.352112,379.806854 
	C378.559326,379.756409 372.765808,379.792206 366.644775,379.792206 
	C366.644775,383.608673 366.644775,387.027954 366.644775,391.140991 
	C372.704315,391.140991 378.802856,391.133148 384.901398,391.143005 
	C392.382507,391.155090 392.875549,391.850464 390.953186,399.974121 
	C379.432312,399.974121 367.843903,399.974121 355.912231,399.974121 
	C355.912231,383.673492 355.912231,367.602386 355.912231,351.172974 
	C367.451355,351.172974 378.845184,351.172974 390.202515,351.172974 
	C392.448486,359.012085 391.755371,359.969147 383.997772,359.961578 
	C378.360504,359.956085 372.723236,359.960510 366.326569,359.960510 
	C366.326569,362.656464 366.326569,365.078766 366.327515,368.001160 
z"/>
<path fill="#0A0A0A" opacity="1.000000" stroke="none" 
	d="
M182.917587,359.966461 
	C177.465775,359.966187 172.501038,359.966187 167.257629,359.966187 
	C167.257629,363.708130 167.257629,367.107330 167.257629,370.998474 
	C173.326096,370.998474 179.274490,371.104797 185.216415,370.954956 
	C188.329285,370.876465 190.130707,371.311859 190.151520,375.193512 
	C190.172806,379.163818 188.560501,379.958801 185.063690,379.824890 
	C179.254410,379.602325 173.430374,379.764282 167.285202,379.764282 
	C167.285202,383.504089 167.285202,387.066193 167.285202,391.131531 
	C173.143341,391.131531 178.920105,391.131378 184.696854,391.131561 
	C192.914795,391.131805 193.006653,391.242676 191.631454,399.911133 
	C179.963287,399.911133 168.238922,399.911133 155.989532,399.911133 
	C155.989532,390.311676 155.989517,381.012390 155.989548,371.713135 
	C155.989563,366.048462 155.830185,360.375916 156.108337,354.724915 
	C156.173203,353.407440 157.698685,351.072662 158.596100,351.051270 
	C169.377777,350.794403 180.167755,350.885132 190.818878,350.885132 
	C192.927734,359.570251 192.527420,360.024109 182.917587,359.966461 
z"/>
<path fill="#080808" opacity="1.000000" stroke="none" 
	d="
M204.902130,385.806641 
	C212.207581,375.044067 212.186539,375.058075 205.225006,364.599457 
	C202.435883,360.409271 199.762131,356.142273 196.826477,351.585175 
	C204.460754,349.908997 210.214294,350.125519 213.538254,357.475769 
	C214.875732,360.433289 217.187286,362.950317 219.373611,366.130524 
	C221.618210,362.886475 223.593643,360.091248 225.507126,357.254242 
	C230.415543,349.976959 231.575821,349.526733 241.507858,351.736908 
	C238.503189,356.350769 235.689163,360.748138 232.798843,365.094788 
	C226.223328,374.983490 226.207382,374.973816 232.828568,384.750793 
	C235.973480,389.394592 239.121582,394.036255 242.289337,398.710022 
	C236.304520,401.942505 230.449219,400.721466 227.069138,395.834625 
	C224.535461,392.171509 221.995880,388.512421 219.050491,384.262177 
	C216.621719,387.719238 214.447952,390.775177 212.313889,393.858643 
	C207.382629,400.983704 205.468811,401.681976 195.710297,399.284973 
	C198.824127,394.731293 201.769363,390.424133 204.902130,385.806641 
z"/>
<path fill="#0D0D0D" opacity="1.000000" stroke="none" 
	d="
M134.778320,393.756378 
	C134.776474,396.009827 134.776474,397.797150 134.776474,399.924622 
	C130.805771,399.924622 127.412621,399.924622 123.566147,399.924622 
	C123.566147,387.007324 123.566147,374.278107 123.566147,360.920288 
	C118.607430,360.920288 114.058792,360.920288 109.099632,360.920288 
	C109.099632,357.406219 109.099632,354.516296 109.099632,351.232910 
	C122.336868,351.232910 135.534332,351.232910 148.895264,351.232910 
	C148.895264,354.332794 148.895264,357.254608 148.895264,360.621094 
	C144.204407,360.621094 139.787323,360.621094 134.780151,360.621094 
	C134.780151,371.804260 134.780151,382.547241 134.778320,393.756378 
z"/>
<path fill="#0D0D0D" opacity="1.000000" stroke="none" 
	d="
M259.186035,394.695801 
	C259.201080,383.279999 259.201080,372.329926 259.201080,360.732849 
	C256.131561,360.732849 253.337708,360.449585 250.623825,360.794952 
	C245.768509,361.412842 243.884903,359.485291 244.605316,354.744873 
	C244.774521,353.631470 244.878189,352.508087 245.041794,351.140381 
	C258.358765,351.140381 271.429871,351.140381 284.835205,351.140381 
	C284.835205,354.170380 284.835205,357.070892 284.835205,360.440887 
	C280.332764,360.440887 275.920044,360.440887 270.899719,360.440887 
	C270.899719,373.756561 270.899719,386.628754 270.899719,399.869873 
	C266.897156,399.869873 263.500031,399.869873 259.548737,399.869873 
	C259.424438,398.320496 259.297699,396.740997 259.186035,394.695801 
z"/>
<path fill="#040404" opacity="1.000000" stroke="none" 
	d="
M319.141113,400.226746 
	C316.051758,400.303436 313.833374,400.434204 313.891174,396.493164 
	C314.101288,382.165009 313.977417,367.832001 314.000641,353.500854 
	C314.001678,352.863281 314.210083,352.226044 314.382996,351.240570 
	C317.868622,351.240570 321.261353,351.240570 325.180908,351.240570 
	C325.180908,364.309418 325.180908,377.232910 325.180908,390.863617 
	C330.772278,390.863617 335.867401,390.864197 340.962524,390.863495 
	C349.418732,390.862305 349.418732,390.861969 348.733063,400.193420 
	C339.099457,400.193420 329.362213,400.193420 319.141113,400.226746 
z"/>
<path fill="#0F0F0F" opacity="1.000000" stroke="none" 
	d="
M291.918152,368.004761 
	C291.918213,362.209473 291.918213,356.912720 291.918213,351.227783 
	C295.815125,351.227783 299.208588,351.227783 303.129089,351.227783 
	C303.129089,367.338593 303.129089,383.502899 303.129089,399.969788 
	C299.498535,399.969788 296.078247,399.969788 291.918091,399.969788 
	C291.918091,389.373230 291.918091,378.938263 291.918152,368.004761 
z"/>
<path fill="#3462E0" opacity="1.000000" stroke="none" 
	d="
M288.953796,317.884216 
	C288.206360,317.960388 287.458954,318.036530 286.198944,318.055206 
	C285.469910,317.976379 285.289612,318.047180 285.145416,318.210114 
	C284.667389,318.334595 284.189362,318.459076 283.096741,318.412994 
	C281.661102,318.147644 280.840057,318.052826 280.031982,317.521393 
	C280.407410,313.716675 280.769867,310.348572 281.499939,306.894409 
	C282.221893,306.299988 282.801086,305.830261 282.896149,305.277283 
	C283.960205,299.088989 285.169067,292.913269 285.889374,286.682159 
	C286.463287,281.717377 286.470825,276.681915 286.568756,271.674652 
	C286.579620,271.118347 285.535553,270.541443 284.979919,269.645447 
	C285.010986,268.880066 285.042877,268.443268 285.348999,267.742676 
	C286.749084,259.325287 288.028473,251.188934 288.947845,243.012100 
	C289.579102,237.398041 289.710266,231.727753 290.064941,226.082581 
	C290.370117,226.097946 290.675293,226.113297 290.980469,226.128647 
	C290.980469,256.048340 290.980469,285.968048 290.726318,316.026031 
	C289.966064,316.737640 289.459930,317.310913 288.953796,317.884216 
z"/>
<path fill="#6CA9CA" opacity="1.000000" stroke="none" 
	d="
M280.019012,317.958008 
	C280.840057,318.052826 281.661102,318.147644 282.726013,318.428101 
	C281.739105,320.061310 279.719116,321.365051 279.424316,322.983154 
	C278.508240,328.011292 278.246826,333.158661 277.632599,339.237610 
	C227.100220,328.522217 177.028214,317.904419 126.146935,307.115051 
	C127.216621,304.170746 128.144516,301.616760 129.361664,298.905853 
	C128.883347,304.637238 132.072128,306.520508 137.384644,307.377319 
	C147.150955,308.952393 156.844971,311.020966 166.517532,313.121368 
	C180.332748,316.121368 194.066956,319.499390 207.899994,322.410797 
	C221.413193,325.254852 235.036514,327.574982 248.552887,330.404999 
	C255.210052,331.798889 261.810822,333.585907 268.293701,335.646240 
	C272.844360,337.092499 276.247742,335.749725 276.746613,330.982635 
	C277.169769,326.939270 276.759491,322.808685 277.242493,318.367310 
	C278.517670,317.997955 279.268341,317.977966 280.019012,317.958008 
z"/>
<path fill="#DDDEE8" opacity="1.000000" stroke="none" 
	d="
M301.332031,316.005585 
	C297.515564,287.935394 299.471619,259.748138 299.081573,231.617981 
	C299.053009,229.558701 300.169464,227.483521 300.753601,225.415741 
	C301.501984,227.485580 302.888062,229.551346 302.901306,231.625854 
	C303.054016,255.578491 302.998047,279.532471 302.999512,303.486084 
	C302.999756,307.388794 303.009766,311.291534 303.007019,315.599548 
	C302.554260,316.009125 302.109772,316.013397 301.332031,316.005585 
z"/>
<path fill="#6CA9CA" opacity="1.000000" stroke="none" 
	d="
M181.683411,160.864334 
	C171.563080,162.165298 174.854202,172.250778 171.177200,177.753876 
	C169.255417,180.630051 168.684464,184.426849 167.602295,187.839218 
	C166.962509,189.856674 166.700500,192.006195 165.946106,193.972610 
	C164.020035,198.993240 161.913101,203.944489 159.515442,208.993576 
	C162.501480,198.488342 165.842926,187.910583 169.203705,177.338959 
	C170.459000,173.390320 172.132523,169.531235 172.945923,165.496368 
	C173.993393,160.300339 176.337097,158.347305 181.683411,160.864334 
z"/>
<path fill="#CCE1F4" opacity="1.000000" stroke="none" 
	d="
M294.993896,307.991638 
	C294.669739,309.094757 294.345551,310.197906 294.015533,312.066589 
	C294.002258,314.213623 293.994812,315.595093 293.987366,316.976562 
	C293.987396,316.976562 293.508392,316.995941 293.248138,316.586243 
	C292.861237,315.090424 292.734619,314.004303 292.656616,312.456970 
	C292.680847,283.035980 292.656403,254.076233 292.714355,224.809814 
	C292.743073,224.298370 292.689331,224.093597 292.667084,223.477219 
	C292.678741,221.414627 292.658844,219.763641 292.721191,217.807343 
	C292.758179,217.296097 292.712952,217.090195 292.702148,216.504761 
	C292.715515,215.109833 292.694519,214.094452 292.791626,212.617691 
	C292.844635,205.770401 292.779510,199.384506 292.714417,192.998611 
	C292.714417,192.998611 292.874146,192.967468 292.951569,192.992889 
	C293.350891,194.914185 293.950043,196.809540 293.953461,198.705994 
	C294.013397,232.134293 293.994415,265.562744 294.020813,298.991150 
	C294.022247,300.798889 294.271820,302.606476 294.700989,305.082397 
	C294.995361,306.497650 294.994629,307.244659 294.993896,307.991638 
z"/>
<path fill="#6CA9CA" opacity="1.000000" stroke="none" 
	d="
M158.826035,209.402176 
	C158.834717,219.765823 154.281021,229.110962 150.612106,238.717850 
	C148.308456,244.749908 146.124390,250.827667 143.547089,256.981598 
	C147.203308,244.526535 151.183609,231.969803 155.205444,219.426392 
	C156.259995,216.137497 157.443436,212.889938 158.826035,209.402176 
z"/>
<path fill="#6CA9CA" opacity="1.000000" stroke="none" 
	d="
M137.005737,275.351837 
	C137.396957,276.427307 138.074677,277.954773 137.720230,279.184784 
	C135.974762,285.241821 133.985352,291.229950 131.988861,297.211304 
	C131.778870,297.840363 130.957535,298.265350 130.026031,298.713013 
	C132.026962,290.982910 134.421661,283.324799 137.005737,275.351837 
z"/>
<path fill="#6CA9CA" opacity="1.000000" stroke="none" 
	d="
M200.601166,164.158585 
	C201.017258,164.064804 201.152054,164.534027 201.009949,165.108734 
	C200.317551,167.610748 199.767258,169.538055 199.216965,171.465363 
	C199.617767,166.194992 196.036072,165.583954 192.038132,164.900620 
	C189.319489,164.435898 186.759171,163.044891 184.056671,161.732071 
	C189.385239,162.348145 194.785156,163.300247 200.601166,164.158585 
z"/>
<path fill="#6CA9CA" opacity="1.000000" stroke="none" 
	d="
M142.851990,257.470764 
	C143.520142,262.945465 142.255890,268.155640 138.318451,272.837402 
	C139.534241,267.892578 141.064972,262.792419 142.851990,257.470764 
z"/>
<path fill="#DDDEE8" opacity="1.000000" stroke="none" 
	d="
M294.364258,316.987640 
	C293.994812,315.595093 294.002258,314.213623 294.018066,312.417480 
	C295.015411,313.421326 296.004303,314.839905 296.997498,316.606079 
	C296.248230,316.968750 295.494720,316.983734 294.364258,316.987640 
z"/>
<path fill="#7893E1" opacity="1.000000" stroke="none" 
	d="
M292.607971,312.918182 
	C292.734619,314.004303 292.861237,315.090424 293.008453,316.588867 
	C291.912903,317.339417 290.796753,317.677673 289.317200,317.950073 
	C289.459930,317.310913 289.966064,316.737640 291.005188,315.914612 
	C291.894806,314.749329 292.251373,313.833740 292.607971,312.918182 
z"/>
<path fill="#6CA9CA" opacity="1.000000" stroke="none" 
	d="
M285.270416,318.329468 
	C285.289612,318.047180 285.469910,317.976379 285.822754,318.057739 
	C285.848175,318.359650 285.660278,318.470032 285.270416,318.329468 
z"/>
<path fill="#FBFBFB" opacity="1.000000" stroke="none" 
	d="
M204.855286,164.973358 
	C206.802231,156.230988 208.691071,147.475204 210.708176,138.749054 
	C214.932541,120.474251 231.422958,110.983231 249.969360,116.524582 
	C239.743454,132.592117 246.873016,149.404037 247.248337,166.561188 
	C245.180679,167.417511 243.585052,167.943436 241.985428,167.955933 
	C233.356491,168.023331 224.726578,167.963364 216.097000,167.947311 
	C212.710464,167.323059 209.323929,166.698807 205.470047,165.797272 
	C204.953552,165.337784 204.904419,165.155563 204.855286,164.973358 
z"/>
<path fill="#3068D0" opacity="1.000000" stroke="none" 
	d="
M292.656616,312.456970 
	C292.251373,313.833740 291.894806,314.749329 291.259338,315.776306 
	C290.980469,285.968048 290.980469,256.048340 290.980469,226.128647 
	C290.675293,226.113297 290.370117,226.097946 290.064941,226.082581 
	C289.710266,231.727753 289.579102,237.398041 288.947845,243.012100 
	C288.028473,251.188934 286.749084,259.325287 285.323975,267.297852 
	C285.580658,261.578094 286.179443,256.043304 286.682434,250.499771 
	C287.452362,242.015045 288.156158,233.524323 288.888000,225.036133 
	C289.703369,217.889908 290.518707,210.743668 291.668274,203.761963 
	C292.226135,206.977356 292.449829,210.028214 292.673523,213.079086 
	C292.694519,214.094452 292.715515,215.109833 292.569458,216.632172 
	C292.364655,217.256058 292.267822,217.394501 292.301025,217.485580 
	C292.381439,217.706360 292.522400,217.905060 292.638947,218.112671 
	C292.658844,219.763641 292.678741,221.414627 292.536926,223.606415 
	C292.340332,224.264893 292.247131,224.405106 292.282166,224.495712 
	C292.366882,224.714951 292.511505,224.911057 292.631958,225.116486 
	C292.656403,254.076233 292.680847,283.035980 292.656616,312.456970 
z"/>
<path fill="#5AA1EC" opacity="1.000000" stroke="none" 
	d="
M288.577118,225.212128 
	C288.156158,233.524323 287.452362,242.015045 286.682434,250.499771 
	C286.179443,256.043304 285.580658,261.578094 285.049805,267.561646 
	C285.042877,268.443268 285.010986,268.880066 284.698853,269.947723 
	C283.657013,276.748566 282.895355,282.918549 282.097351,289.064453 
	C282.060974,289.040375 281.988098,288.992462 281.988098,288.992462 
	C282.345825,281.506348 282.693359,274.019714 283.064423,266.534271 
	C283.363281,260.506348 283.552612,254.468613 284.043274,248.455872 
	C284.553436,242.204254 285.257141,235.961990 286.126343,229.750656 
	C286.339630,228.226501 287.526794,226.838638 288.577118,225.212128 
z"/>
<path fill="#DEDFE0" opacity="1.000000" stroke="none" 
	d="
M253.165344,175.920013 
	C252.510696,173.143280 252.261810,170.485794 252.472076,167.350723 
	C257.118927,166.646790 261.306610,166.420471 265.494293,166.194153 
	C264.733582,169.965927 263.972870,173.737701 263.024353,177.991226 
	C262.836578,178.472977 262.634064,178.749115 262.634064,178.749115 
	C259.613068,177.845840 256.592072,176.942566 253.165344,175.920013 
z"/>
<path fill="#DDDEE8" opacity="1.000000" stroke="none" 
	d="
M216.382080,168.184586 
	C224.726578,167.963364 233.356491,168.023331 241.985428,167.955933 
	C243.585052,167.943436 245.180679,167.417511 247.215088,167.012329 
	C247.993942,169.285217 248.335861,171.674332 248.694641,174.474411 
	C238.030060,172.730865 227.348602,170.576355 216.382080,168.184586 
z"/>
<path fill="#081526" opacity="1.000000" stroke="none" 
	d="
M262.643860,179.127060 
	C262.634064,178.749115 262.836578,178.472977 262.992432,178.401505 
	C264.282806,177.916367 265.417328,177.502686 266.860474,177.074677 
	C267.169067,177.060364 267.258362,177.535858 267.253540,178.072510 
	C267.285095,179.041718 267.321533,179.474289 267.357941,179.906845 
	C266.471954,183.560486 265.732910,187.260086 264.613647,190.840805 
	C264.261169,191.968414 262.888885,192.777237 261.983337,193.731949 
	C261.492645,192.535522 260.469238,191.272186 260.609558,190.155014 
	C261.059113,186.575897 261.939545,183.050888 262.643860,179.127060 
z"/>
<path fill="#081526" opacity="1.000000" stroke="none" 
	d="
M204.490158,164.982712 
	C204.904419,165.155563 204.953552,165.337784 205.081909,165.793396 
	C204.280609,169.925049 203.538589,173.823547 202.435898,177.617233 
	C202.101395,178.768036 200.770157,179.629120 199.895447,180.622894 
	C199.419342,179.285736 198.648682,177.970306 198.547913,176.605438 
	C198.441818,175.168457 198.976044,173.684174 199.223724,171.842957 
	C199.767258,169.538055 200.317551,167.610748 201.035767,165.351456 
	C202.177475,165.010330 203.151260,165.001190 204.490158,164.982712 
z"/>
<path fill="#CCE1F4" opacity="1.000000" stroke="none" 
	d="
M267.769958,179.848816 
	C267.321533,179.474289 267.285095,179.041718 267.343353,178.297119 
	C275.238647,179.035782 283.046173,180.041870 290.823395,181.243988 
	C291.308624,181.318985 291.556274,182.930908 291.605774,183.874023 
	C283.592072,182.543762 275.886993,181.167267 267.769958,179.848816 
z"/>
<path fill="#5AA1EC" opacity="1.000000" stroke="none" 
	d="
M280.031982,317.521362 
	C279.268341,317.977966 278.517670,317.997955 277.392365,318.028992 
	C278.484772,308.533234 279.951813,299.026459 281.703491,289.256073 
	C281.988098,288.992462 282.060974,289.040375 282.072510,289.514465 
	C281.766785,295.652527 281.449585,301.316498 281.132324,306.980469 
	C280.769867,310.348572 280.407410,313.716675 280.031982,317.521362 
z"/>
<path fill="#7893E1" opacity="1.000000" stroke="none" 
	d="
M292.791626,212.617691 
	C292.449829,210.028214 292.226135,206.977356 291.970703,203.487442 
	C292.043610,199.876907 292.148285,196.705429 292.483673,193.266266 
	C292.779510,199.384506 292.844635,205.770401 292.791626,212.617691 
z"/>
<path fill="#7893E1" opacity="1.000000" stroke="none" 
	d="
M291.258179,184.997543 
	C291.487122,184.928101 291.752472,185.137497 292.118073,185.582184 
	C291.910431,185.637100 291.602509,185.456757 291.258179,184.997543 
z"/>
<path fill="#FBFBFB" opacity="1.000000" stroke="none" 
	d="
M270.798340,163.684006 
	C271.605133,156.965134 273.513580,150.591293 273.548462,144.207230 
	C273.616943,131.680496 267.483307,122.084541 257.065155,115.267632 
	C264.297058,104.750618 286.547211,100.305092 299.684875,115.210266 
	C303.529419,119.572090 306.203522,125.711258 307.436737,131.459976 
	C309.449524,140.842789 309.838623,150.573914 310.859894,160.564590 
	C298.624512,162.110626 286.443451,163.266281 274.256958,164.361069 
	C273.207581,164.455338 272.121948,164.146164 270.798340,163.684006 
z"/>
<path fill="#DDDEE8" opacity="1.000000" stroke="none" 
	d="
M295.358154,307.951843 
	C294.994629,307.244659 294.995361,306.497650 294.997437,305.377167 
	C294.998779,278.569061 294.998779,252.134460 294.998779,225.699860 
	C295.577057,225.676147 296.155304,225.652420 296.733582,225.628693 
	C296.821960,227.312531 296.986145,228.996307 296.987366,230.680222 
	C297.004395,253.975540 297.107361,277.272156 296.830566,300.564209 
	C296.803070,302.878174 299.967194,306.127258 295.358154,307.951843 
z"/>
<path fill="#F8F8F8" opacity="1.000000" stroke="none" 
	d="
M265.657593,165.858948 
	C261.306610,166.420471 257.118927,166.646790 252.525406,166.926987 
	C251.058563,154.776291 249.587173,142.585587 249.173996,130.359131 
	C249.041351,126.433990 251.702713,122.414429 253.105560,118.381279 
	C264.120178,123.223961 271.290741,136.303604 269.491974,147.476578 
	C268.517059,153.532349 267.060333,159.510544 265.657593,165.858948 
z"/>
<path fill="#3068D0" opacity="1.000000" stroke="none" 
	d="
M281.499939,306.894409 
	C281.449585,301.316498 281.766785,295.652527 282.108887,289.538513 
	C282.895355,282.918549 283.657013,276.748566 284.699707,270.276367 
	C285.535553,270.541443 286.579620,271.118347 286.568756,271.674652 
	C286.470825,276.681915 286.463287,281.717377 285.889374,286.682159 
	C285.169067,292.913269 283.960205,299.088989 282.896149,305.277283 
	C282.801086,305.830261 282.221893,306.299988 281.499939,306.894409 
z"/>
<path fill="#7893E1" opacity="1.000000" stroke="none" 
	d="
M292.714355,224.809814 
	C292.511505,224.911057 292.366882,224.714951 292.282166,224.495712 
	C292.247131,224.405106 292.340332,224.264893 292.505371,224.018036 
	C292.689331,224.093597 292.743073,224.298370 292.714355,224.809814 
z"/>
<path fill="#7893E1" opacity="1.000000" stroke="none" 
	d="
M292.721191,217.807343 
	C292.522400,217.905060 292.381439,217.706360 292.301025,217.485580 
	C292.267822,217.394501 292.364655,217.256058 292.535034,217.011734 
	C292.712952,217.090195 292.758179,217.296097 292.721191,217.807343 
z"/>
</svg>